# xmcd
# 
# Track frame offsets:
#     183
#     35465
#     54220
#     74555
#     91418
#     103378
#     118990
#     142105
#     152718
#     170115
#     190945
#     204963
#     220515
#     243283
#     264258
#     278588
#     295935
# 
# Disc length: 4138
# 
# Revision: 2
# Processed by: cddbd v1.5.2PL0 Copyright (c) Steve Scherf et al.
# Submitted via: fre:ac v1.0.31
# 
DISCID=01102811
DTITLE=Various Artist - Rock Over Holland Cd 1
DYEAR=0
DGENRE=
TTITLE0=Golden Earring - Twilight zone
TTITLE1=Herman Brood - Sleepin' bird
TTITLE2=Vandenberg - Different worlds
TTITLE3=Flavium - Nightlife
TTITLE4=Bintangs - Ridin' on the L&N
TTITLE5=Cuby and Blizzards - Window of my yese
TTITLE6=Livin Blues - Wang dang doodle
TTITLE7=Q 65 - The life I live
TTITLE8=Oscar Benton Blues Band - Bensonhurts Blues
TTITLE9=Muskee - Brother Booze
TTITLE10=Sandy Coast - True love that's a wonder
TTITLE11=Nits - In the dutch mountains
TTITLE12=Solution - It's only just begin
TTITLE13=Ten Sharp - Japanese lovesong
TTITLE14=Partner - Kayuta Hill
TTITLE15=I've got the bullets - In the middle of the night
TTITLE16=Lois Lane - Amsterdamned
EXTD=
EXTT0=
EXTT1=
EXTT2=
EXTT3=
EXTT4=
EXTT5=
EXTT6=
EXTT7=
EXTT8=
EXTT9=
EXTT10=
EXTT11=
EXTT12=
EXTT13=
EXTT14=
EXTT15=
EXTT16=
PLAYORDER=
